<mxfile host="app.diagrams.net" agent="Mozilla/5.0 (Windows NT 10.0; Win64; x64) AppleWebKit/537.36 (KHTML, like Gecko) Chrome/131.0.0.0 Safari/537.36" version="25.0.3">
  <diagram name="Page-1" id="uqdfNAO-JrIJKqVbTk3Z">
    <mxGraphModel dx="1588" dy="908" grid="1" gridSize="10" guides="1" tooltips="1" connect="1" arrows="1" fold="1" page="1" pageScale="1" pageWidth="850" pageHeight="1100" math="0" shadow="0">
      <root>
        <mxCell id="0" />
        <mxCell id="1" parent="0" />
        <mxCell id="zDroNTKkJUsGIWbYWPvJ-1" value="PM" style="rounded=1;html=1;fillColor=#000000;fontColor=#ffffff;fontFamily=Verdana;" vertex="1" parent="1">
          <mxGeometry x="140" y="100" width="150" height="30" as="geometry" />
        </mxCell>
        <mxCell id="zDroNTKkJUsGIWbYWPvJ-2" value="DEPT. DI" style="rounded=1;html=1;fillColor=#000000;fontColor=#ffffff;fontFamily=Verdana;" vertex="1" parent="1">
          <mxGeometry x="340" y="100" width="150" height="30" as="geometry" />
        </mxCell>
        <mxCell id="zDroNTKkJUsGIWbYWPvJ-3" value="DOKUMEN" style="rounded=1;html=1;fillColor=#000000;fontColor=#ffffff;fontFamily=Verdana;" vertex="1" parent="1">
          <mxGeometry x="740" y="100" width="150" height="30" as="geometry" />
        </mxCell>
        <mxCell id="zDroNTKkJUsGIWbYWPvJ-19" value="" style="edgeStyle=orthogonalEdgeStyle;rounded=0;orthogonalLoop=1;jettySize=auto;html=1;exitX=1;exitY=0.5;exitDx=0;exitDy=0;" edge="1" parent="1" source="zDroNTKkJUsGIWbYWPvJ-5" target="zDroNTKkJUsGIWbYWPvJ-11">
          <mxGeometry relative="1" as="geometry" />
        </mxCell>
        <mxCell id="zDroNTKkJUsGIWbYWPvJ-5" value="PM Mengajukan pengecekan kepada Departemen DI&amp;nbsp;" style="rounded=1;whiteSpace=wrap;html=1;fontFamily=Verdana;dashed=1;" vertex="1" parent="1">
          <mxGeometry x="140" y="160" width="150" height="90" as="geometry" />
        </mxCell>
        <mxCell id="zDroNTKkJUsGIWbYWPvJ-6" style="edgeStyle=orthogonalEdgeStyle;rounded=0;orthogonalLoop=1;jettySize=auto;html=1;exitX=0.5;exitY=1;exitDx=0;exitDy=0;" edge="1" parent="1">
          <mxGeometry relative="1" as="geometry">
            <mxPoint x="660" y="220" as="sourcePoint" />
            <mxPoint x="660" y="220" as="targetPoint" />
          </mxGeometry>
        </mxCell>
        <mxCell id="zDroNTKkJUsGIWbYWPvJ-8" value="&lt;font face=&quot;Verdana&quot;&gt;PM Mengupload File Awal yang diminta&amp;nbsp;&lt;/font&gt;" style="rounded=1;whiteSpace=wrap;html=1;dashed=1;" vertex="1" parent="1">
          <mxGeometry x="140" y="280" width="150" height="90" as="geometry" />
        </mxCell>
        <mxCell id="zDroNTKkJUsGIWbYWPvJ-9" style="edgeStyle=orthogonalEdgeStyle;rounded=0;orthogonalLoop=1;jettySize=auto;html=1;exitX=0.5;exitY=1;exitDx=0;exitDy=0;entryX=0.5;entryY=0;entryDx=0;entryDy=0;" edge="1" parent="1" source="zDroNTKkJUsGIWbYWPvJ-11" target="zDroNTKkJUsGIWbYWPvJ-13">
          <mxGeometry relative="1" as="geometry" />
        </mxCell>
        <mxCell id="zDroNTKkJUsGIWbYWPvJ-10" style="edgeStyle=orthogonalEdgeStyle;rounded=0;orthogonalLoop=1;jettySize=auto;html=1;exitX=1;exitY=0.5;exitDx=0;exitDy=0;entryX=0;entryY=0.5;entryDx=0;entryDy=0;" edge="1" parent="1" source="zDroNTKkJUsGIWbYWPvJ-11" target="zDroNTKkJUsGIWbYWPvJ-17">
          <mxGeometry relative="1" as="geometry" />
        </mxCell>
        <mxCell id="zDroNTKkJUsGIWbYWPvJ-11" value="&lt;font face=&quot;Verdana&quot;&gt;DI Memeriksa kelengkapan data dan kelayakan proyek&lt;/font&gt;" style="rounded=1;whiteSpace=wrap;html=1;dashed=1;" vertex="1" parent="1">
          <mxGeometry x="340" y="170" width="150" height="70" as="geometry" />
        </mxCell>
        <mxCell id="zDroNTKkJUsGIWbYWPvJ-24" value="" style="edgeStyle=orthogonalEdgeStyle;rounded=0;orthogonalLoop=1;jettySize=auto;html=1;" edge="1" parent="1" source="zDroNTKkJUsGIWbYWPvJ-13" target="zDroNTKkJUsGIWbYWPvJ-21">
          <mxGeometry relative="1" as="geometry" />
        </mxCell>
        <mxCell id="zDroNTKkJUsGIWbYWPvJ-13" value="&lt;font face=&quot;Verdana&quot;&gt;DI Meminta File ataupun data yang kurang&amp;nbsp;&lt;/font&gt;" style="rounded=1;whiteSpace=wrap;html=1;dashed=1;" vertex="1" parent="1">
          <mxGeometry x="340" y="290" width="150" height="70" as="geometry" />
        </mxCell>
        <mxCell id="zDroNTKkJUsGIWbYWPvJ-15" value="&lt;font face=&quot;Verdana&quot;&gt;PM Mengajukan pemindahan Data sesuai dengan&amp;nbsp;&lt;/font&gt;&lt;div&gt;&lt;font face=&quot;Verdana&quot;&gt;hasil dari DI&amp;nbsp;&lt;/font&gt;&lt;/div&gt;" style="rounded=1;whiteSpace=wrap;html=1;dashed=1;" vertex="1" parent="1">
          <mxGeometry x="140" y="470" width="150" height="80" as="geometry" />
        </mxCell>
        <mxCell id="zDroNTKkJUsGIWbYWPvJ-16" value="&lt;font face=&quot;Verdana&quot;&gt;TIK memindahkan Data ke laman Data Pengadaan atau Rekapan Proyek Gagal&lt;/font&gt;" style="rounded=1;whiteSpace=wrap;html=1;dashed=1;" vertex="1" parent="1">
          <mxGeometry x="540" y="470" width="150" height="80" as="geometry" />
        </mxCell>
        <mxCell id="zDroNTKkJUsGIWbYWPvJ-17" value="&lt;font face=&quot;Verdana&quot;&gt;DATA VERIFIKASI&lt;/font&gt;" style="rounded=1;whiteSpace=wrap;html=1;dashed=1;" vertex="1" parent="1">
          <mxGeometry x="740" y="165" width="150" height="80" as="geometry" />
        </mxCell>
        <mxCell id="zDroNTKkJUsGIWbYWPvJ-18" value="TIK" style="rounded=1;html=1;fillColor=#000000;fontColor=#ffffff;fontFamily=Verdana;" vertex="1" parent="1">
          <mxGeometry x="540" y="100" width="150" height="30" as="geometry" />
        </mxCell>
        <mxCell id="zDroNTKkJUsGIWbYWPvJ-25" value="" style="edgeStyle=orthogonalEdgeStyle;rounded=0;orthogonalLoop=1;jettySize=auto;html=1;exitX=0;exitY=0.5;exitDx=0;exitDy=0;entryX=0.5;entryY=0;entryDx=0;entryDy=0;" edge="1" parent="1" source="zDroNTKkJUsGIWbYWPvJ-21" target="zDroNTKkJUsGIWbYWPvJ-15">
          <mxGeometry relative="1" as="geometry">
            <Array as="points">
              <mxPoint x="215" y="435" />
            </Array>
          </mxGeometry>
        </mxCell>
        <mxCell id="zDroNTKkJUsGIWbYWPvJ-21" value="&lt;font face=&quot;Verdana&quot;&gt;DI Memberikan hasil dari pengecekkan kelayakan proyek&amp;nbsp;&lt;/font&gt;" style="rounded=1;whiteSpace=wrap;html=1;dashed=1;" vertex="1" parent="1">
          <mxGeometry x="340" y="400" width="150" height="70" as="geometry" />
        </mxCell>
        <mxCell id="zDroNTKkJUsGIWbYWPvJ-23" value="" style="endArrow=classic;startArrow=classic;html=1;rounded=0;exitX=1;exitY=0.5;exitDx=0;exitDy=0;entryX=0;entryY=0.5;entryDx=0;entryDy=0;" edge="1" parent="1" source="zDroNTKkJUsGIWbYWPvJ-8" target="zDroNTKkJUsGIWbYWPvJ-13">
          <mxGeometry width="50" height="50" relative="1" as="geometry">
            <mxPoint x="370" y="390" as="sourcePoint" />
            <mxPoint x="420" y="340" as="targetPoint" />
          </mxGeometry>
        </mxCell>
        <mxCell id="zDroNTKkJUsGIWbYWPvJ-26" value="" style="endArrow=classic;html=1;rounded=0;exitX=1;exitY=0.5;exitDx=0;exitDy=0;entryX=0;entryY=0.5;entryDx=0;entryDy=0;" edge="1" parent="1" source="zDroNTKkJUsGIWbYWPvJ-15" target="zDroNTKkJUsGIWbYWPvJ-16">
          <mxGeometry width="50" height="50" relative="1" as="geometry">
            <mxPoint x="410" y="420" as="sourcePoint" />
            <mxPoint x="460" y="370" as="targetPoint" />
          </mxGeometry>
        </mxCell>
        <mxCell id="zDroNTKkJUsGIWbYWPvJ-27" value="&lt;font face=&quot;Verdana&quot;&gt;TIK Melakukan pengecekan error pada data ataupun file terkair&lt;/font&gt;" style="rounded=1;whiteSpace=wrap;html=1;dashed=1;" vertex="1" parent="1">
          <mxGeometry x="540" y="310" width="150" height="80" as="geometry" />
        </mxCell>
        <mxCell id="zDroNTKkJUsGIWbYWPvJ-28" value="" style="endArrow=classic;startArrow=classic;html=1;rounded=0;exitX=0.5;exitY=0;exitDx=0;exitDy=0;entryX=0.5;entryY=1;entryDx=0;entryDy=0;" edge="1" parent="1" source="zDroNTKkJUsGIWbYWPvJ-16" target="zDroNTKkJUsGIWbYWPvJ-27">
          <mxGeometry width="50" height="50" relative="1" as="geometry">
            <mxPoint x="420" y="460" as="sourcePoint" />
            <mxPoint x="470" y="410" as="targetPoint" />
          </mxGeometry>
        </mxCell>
        <mxCell id="zDroNTKkJUsGIWbYWPvJ-29" value="" style="rounded=0;whiteSpace=wrap;html=1;fillColor=none;" vertex="1" parent="1">
          <mxGeometry x="120" y="80" width="800" height="510" as="geometry" />
        </mxCell>
      </root>
    </mxGraphModel>
  </diagram>
</mxfile>
